<svg id="Layer_1" data-name="Layer 1" xmlns="http://www.w3.org/2000/svg" viewBox="0 0 370.25 134.78"><defs><style>.cls-1{fill:#6e7074;}.cls-2{fill:#45c1bc;}.cls-3{fill:none;}</style></defs><path class="cls-1" d="M242.35,348.56a57,57,0,0,0-14.72-16.85c2.24-5.55,4-11.44,3.94-17.48A25.81,25.81,0,0,0,226.43,298a19.54,19.54,0,0,0-16.18-7.37c-9.33.25-18.66,0-28,0a19.32,19.32,0,0,0-16,8.51,25.37,25.37,0,0,0-4.09,16.05,130.89,130.89,0,0,0,3,15.56,87.24,87.24,0,0,1-8,7.22,7.11,7.11,0,0,0-2.1,6.26A53.3,53.3,0,0,0,157,355.77a43.27,43.27,0,0,1,13.9-16.26c5.2,10.28,10.07,20.72,15,31.14,1.88,3.9.13,8.16-.27,12.18-.31,2.31.72,4.47,1.85,6.42,3,5.61,5.84,11.31,8.78,17a34,34,0,0,0,2.31,4.34l2.24-.95c-2.9-5.87-5.92-11.66-8.91-17.47.86-.34,1.72-.66,2.59-.95q4.08,8.29,8.14,16.61c.15.27.29.56.43.85l2.21-.94c-2.82-6-5.84-12-8.67-18l2.56-1c2.78,6,5.71,11.94,8.48,18l2.18-.93c-2.61-6.07-5.57-12-8.42-18,.82-.41,1.67-.79,2.52-1.17,2.63,6.11,5.53,12.09,8.15,18.2l2.37-1c-.31-.84-.73-1.65-1.09-2.47-3.27-7.28-6.36-14.67-9.72-21.92a8.75,8.75,0,0,0-4.81-4.73,14.91,14.91,0,0,1-8.59-9.92c-3.94-9.83-8.37-19.48-12.21-29.34a45.27,45.27,0,0,1,20.55-4c9.88.53,19.27,5,26.6,11.53a40.41,40.41,0,0,1,13,24,37.39,37.39,0,0,1-2.36,21.91,11.41,11.41,0,0,0-.89,2.74l6.11,11.29c1-1.9,2.27-3.68,3.17-5.65C251.58,382,250.7,363.24,242.35,348.56Zm-25-22.75a56.46,56.46,0,0,0-25.58-4.18,57.79,57.79,0,0,0-15.27,3.44c-2.87-5.06-3.75-11.49-1.31-16.89,1.38-3.37,4.34-6.41,8.14-6.66,8.62-.27,17.26-.1,25.89-.15a8.34,8.34,0,0,1,6.56,2.59,16.43,16.43,0,0,1,4.14,10.74A33.27,33.27,0,0,1,217.3,325.81Z" transform="translate(-144.34 -290.63)"/><path class="cls-1" d="M232.2,386.53l-2.11-3.89a91.17,91.17,0,0,0,.92-9.52,52.11,52.11,0,0,0-.09-5.82l0-.25c-.06-.69-.13-1.16-.18-1.43,0,0,0-.07,0-.1a.64.64,0,0,0,0-.09.26.26,0,0,1,0-.07v0a37.81,37.81,0,0,0-8.13-18.07c-1.51-1.67-2.76-3.74-4.81-4.79a9.85,9.85,0,0,1,1.16.58l.28.16.28.17.3.18c.14.09.29.18.44.29a4.25,4.25,0,0,1,.39.25c.3.21.62.44,1,.7s.4.31.61.49c.52.42,1.08.9,1.65,1.45.15.13.29.28.44.43l.51.52.51.55.52.58c.46.54.93,1.12,1.4,1.75l.44.6s0,0,0,0l.4.59.07.1.42.64c.16.26.33.52.49.79a0,0,0,0,0,0,0c.11.2.23.39.35.59l.09.17q.43.75.84,1.56c.17.33.34.67.5,1A39,39,0,0,1,232.2,386.53Z" transform="translate(-144.34 -290.63)"/><path class="cls-2" d="M238,407.11c-1.47,2.59-3.81,4.5-6,6.4a51,51,0,0,1-26.46,11.32,53.28,53.28,0,0,1-31.09-4.65,54.42,54.42,0,0,1-25.29-25.81c-5.47-12.55-6.48-27.2-1.74-40.14.87-2.92,2.61-5.5,3.33-8.46,1.59,5.44,2.09,11.23,4.56,16.4,2.77,6.2,8,11,13.69,14.44,5.3,3.06,10.23,7.21,13,12.77,1.67,3.47,3.1,7.41,2.15,11.3A6.63,6.63,0,0,1,179,406.3c-3.77.63-7.4-1.12-10.62-2.86-8.76-4.91-14.38-13.73-18.53-22.6,1,8.9,6.61,16.53,13.26,22.19,10.81,9.23,25.84,12.18,39.67,10.36,7.46-1,14.49-3.88,21.13-7.29,0,0-2.31,10.53-35.45,13.6h0a47,47,0,0,0,11.84.28,52.83,52.83,0,0,0,7.06-1.14.27.27,0,0,1,.12,0,44.53,44.53,0,0,0,17.22-8.21,41,41,0,0,0,3.22-2.78l.81-.79-.76-1.5-1.91-3.75c-4.11-8-8.13-16.1-12.25-24.12-1-1.95-1.79-4.12-3.44-5.65-5.6.08-10.8-3.13-14.05-7.54A22.55,22.55,0,0,1,192.22,348c.66-3,2.16-5.95,4.85-7.55,2.51-1.58,5.68-1.54,8.49-.93,4.44,1.27,8.05,4.61,10.48,8.45,3.16,5.09,4.8,11.68,2.5,17.41-.58,1.68-2.76,3.37-1.43,5.19,5.56,9.63,11,19.33,16.6,28.94A83.49,83.49,0,0,1,238,407.11Z" transform="translate(-144.34 -290.63)"/><polyline class="cls-3" points="97.11 113.01 96.72 112.31 90.62 101.02"/><line class="cls-3" x1="60.94" y1="117.07" x2="58.74" y2="118"/><line class="cls-3" x1="70.12" y1="113.17" x2="67.75" y2="114.17"/><line class="cls-3" x1="65.5" y1="115.13" x2="63.32" y2="116.06"/><line class="cls-3" x1="56.49" y1="118.96" x2="54.25" y2="119.91"/><path class="cls-2" d="M255,402.16V361.67h12.23l7.35,27.62,7.26-27.62h12.27v40.49h-7.6V370.28l-8,31.88h-7.87l-8-31.88v31.88Z" transform="translate(-144.34 -290.63)"/><path class="cls-2" d="M298.51,372.82h8.26l7,20.83,6.85-20.83h8l-10.35,28.23-1.86,5.11a21.34,21.34,0,0,1-1.94,3.93,8.56,8.56,0,0,1-2.13,2.19,9.27,9.27,0,0,1-3,1.31,15,15,0,0,1-4,.47,20.15,20.15,0,0,1-4.39-.47l-.69-6.07a17.08,17.08,0,0,0,3.29.36,4.86,4.86,0,0,0,4-1.59,11,11,0,0,0,2-4.05Z" transform="translate(-144.34 -290.63)"/><path class="cls-2" d="M331.63,389l7.95-.77a9.67,9.67,0,0,0,2.92,5.88,8.76,8.76,0,0,0,5.92,1.88c2.64,0,4.62-.55,6-1.67a5,5,0,0,0,2-3.91,3.67,3.67,0,0,0-.84-2.44,6.87,6.87,0,0,0-3-1.76c-.95-.33-3.14-.92-6.54-1.76q-6.57-1.64-9.23-4a10.55,10.55,0,0,1-3.73-8.15,10.38,10.38,0,0,1,1.76-5.78,11,11,0,0,1,5-4.11,20.25,20.25,0,0,1,8-1.41q7.62,0,11.48,3.35a11.76,11.76,0,0,1,4,8.92l-8.17.36a7,7,0,0,0-2.25-4.49,8.26,8.26,0,0,0-5.18-1.37,9.3,9.3,0,0,0-5.58,1.47,2.93,2.93,0,0,0-1.3,2.51,3.11,3.11,0,0,0,1.22,2.46c1,.86,3.53,1.77,7.51,2.71a39.18,39.18,0,0,1,8.82,2.91,11.29,11.29,0,0,1,4.48,4.12,12.76,12.76,0,0,1-.32,13,11.59,11.59,0,0,1-5.47,4.52,23,23,0,0,1-8.81,1.48q-7.68,0-11.79-3.55T331.63,389Z" transform="translate(-144.34 -290.63)"/><path class="cls-2" d="M371.38,368.85v-7.18h7.76v7.18Zm0,33.31V372.82h7.76v29.34Z" transform="translate(-144.34 -290.63)"/><path class="cls-2" d="M383.37,402.16l10.57-15.11-10.13-14.23h9.47l5.19,8.07,5.47-8.07h9.12l-9.95,13.9L414,402.16h-9.53l-6-9.09-6,9.09Z" transform="translate(-144.34 -290.63)"/><path class="cls-1" d="M418.61,402.16V361.67h13.12q7.45,0,9.72.6a10.6,10.6,0,0,1,5.83,4,12.52,12.52,0,0,1,2.35,7.88,13.22,13.22,0,0,1-1.35,6.27,11.07,11.07,0,0,1-3.44,4,11.79,11.79,0,0,1-4.24,1.92,46.37,46.37,0,0,1-8.48.58h-5.33v15.28Zm8.18-33.64V380h4.47q4.83,0,6.47-.64a5.33,5.33,0,0,0,3.48-5.14,5.23,5.23,0,0,0-1.3-3.64,5.66,5.66,0,0,0-3.29-1.8,40.23,40.23,0,0,0-5.88-.27Z" transform="translate(-144.34 -290.63)"/><path class="cls-1" d="M462.09,381.77l-7-1.27a11,11,0,0,1,4.09-6.29q2.91-2.06,8.62-2,5.19,0,7.73,1.23a7.7,7.7,0,0,1,3.58,3.12q1,1.89,1,6.95l-.09,9.06a31.08,31.08,0,0,0,.38,5.7,16.69,16.69,0,0,0,1.39,3.94H474.1c-.2-.52-.45-1.28-.74-2.29-.13-.46-.22-.77-.28-.91a14.17,14.17,0,0,1-4.25,2.9,12.26,12.26,0,0,1-4.84,1,10,10,0,0,1-7.14-2.46,8.15,8.15,0,0,1-2.61-6.21,8.32,8.32,0,0,1,1.19-4.43,7.74,7.74,0,0,1,3.33-3,26.23,26.23,0,0,1,6.17-1.81,42.18,42.18,0,0,0,7.54-1.9v-.78a4,4,0,0,0-1.1-3.19c-.74-.63-2.13-.95-4.17-.95a5.49,5.49,0,0,0-3.23.82A5.6,5.6,0,0,0,462.09,381.77Zm10.38,6.3a47.81,47.81,0,0,1-4.72,1.19,14.47,14.47,0,0,0-4.23,1.35,3.24,3.24,0,0,0-1.51,2.74,3.83,3.83,0,0,0,1.21,2.82,4.24,4.24,0,0,0,3.09,1.18,6.74,6.74,0,0,0,4-1.38,4.81,4.81,0,0,0,1.85-2.57,15.46,15.46,0,0,0,.3-3.78Z" transform="translate(-144.34 -290.63)"/><path class="cls-1" d="M487.47,402.16V361.67h7.76v21.49l9.09-10.34h9.56l-10,10.72,10.75,18.62h-8.37L498.85,389l-3.62,3.79v9.39Z" transform="translate(-144.34 -290.63)"/><path class="cls-2" d="M319.57,405.57h1.32v3.56a7.89,7.89,0,0,0,.05,1.1,1.07,1.07,0,0,0,.41.64,1.68,1.68,0,0,0,1.73,0,1,1,0,0,0,.34-.57,7.14,7.14,0,0,0,.06-1.11v-3.64h1.33V409a8.89,8.89,0,0,1-.11,1.67,1.89,1.89,0,0,1-.4.83,2,2,0,0,1-.77.53,3.39,3.39,0,0,1-1.26.2,3.53,3.53,0,0,1-1.43-.22,2,2,0,0,1-.77-.56,1.75,1.75,0,0,1-.37-.73,7.67,7.67,0,0,1-.13-1.66Z" transform="translate(-144.34 -290.63)"/><path class="cls-2" d="M330.79,412.14v-6.57h2.13a8.06,8.06,0,0,1,1.57.1,1.71,1.71,0,0,1,.95.64,2.07,2.07,0,0,1,.38,1.28,2.11,2.11,0,0,1-.22,1,1.88,1.88,0,0,1-.56.65,2,2,0,0,1-.68.31,8,8,0,0,1-1.38.09h-.86v2.48Zm1.33-5.46v1.87h.72a3.36,3.36,0,0,0,1.05-.11.77.77,0,0,0,.41-.32.9.9,0,0,0,.15-.51.84.84,0,0,0-.21-.59.87.87,0,0,0-.53-.29,6.15,6.15,0,0,0-.95-.05Z" transform="translate(-144.34 -290.63)"/><path class="cls-2" d="M344.55,409.72v-1.1h2.86v2.61a3.51,3.51,0,0,1-1.21.71,4.29,4.29,0,0,1-1.6.31,3.58,3.58,0,0,1-1.8-.43,2.76,2.76,0,0,1-1.15-1.24,3.93,3.93,0,0,1-.38-1.75,3.74,3.74,0,0,1,.43-1.82,2.81,2.81,0,0,1,1.26-1.22,3.35,3.35,0,0,1,1.57-.33,3.16,3.16,0,0,1,1.91.51,2.33,2.33,0,0,1,.88,1.42l-1.31.25a1.42,1.42,0,0,0-.53-.77,1.6,1.6,0,0,0-1-.28,1.81,1.81,0,0,0-1.38.55,2.31,2.31,0,0,0-.52,1.64,2.59,2.59,0,0,0,.52,1.75,1.74,1.74,0,0,0,1.36.59,2.29,2.29,0,0,0,.84-.17,2.73,2.73,0,0,0,.72-.39v-.84Z" transform="translate(-144.34 -290.63)"/><path class="cls-2" d="M353.22,412.14v-6.57H356a4.72,4.72,0,0,1,1.53.18,1.57,1.57,0,0,1,.77.63,1.9,1.9,0,0,1,.28,1,1.73,1.73,0,0,1-.43,1.22,2,2,0,0,1-1.3.61,3.17,3.17,0,0,1,.71.55,6.91,6.91,0,0,1,.75,1.07l.81,1.28h-1.59l-1-1.43a8.05,8.05,0,0,0-.7-1,1,1,0,0,0-.4-.28,2.15,2.15,0,0,0-.66-.07h-.27v2.74Zm1.33-3.79h1a5.34,5.34,0,0,0,1.19-.08.7.7,0,0,0,.37-.28.84.84,0,0,0,.14-.49.8.8,0,0,0-.18-.54.83.83,0,0,0-.5-.25,8.4,8.4,0,0,0-1,0h-1Z" transform="translate(-144.34 -290.63)"/><path class="cls-2" d="M370.35,412.14h-1.44l-.57-1.49h-2.63l-.54,1.49h-1.41l2.56-6.57h1.4Zm-2.44-2.6L367,407.1l-.88,2.44Z" transform="translate(-144.34 -290.63)"/><path class="cls-2" d="M375.64,405.57h2.42a4.45,4.45,0,0,1,1.25.13,2.21,2.21,0,0,1,1,.6,3.06,3.06,0,0,1,.63,1.07,4.92,4.92,0,0,1,.21,1.55,4.5,4.5,0,0,1-.2,1.4,3,3,0,0,1-.7,1.16,2.41,2.41,0,0,1-.94.52,4.05,4.05,0,0,1-1.17.14h-2.49Zm1.32,1.11V411h1a3.73,3.73,0,0,0,.8-.06,1.15,1.15,0,0,0,.54-.27,1.41,1.41,0,0,0,.35-.64,4.24,4.24,0,0,0,.13-1.2,3.92,3.92,0,0,0-.13-1.17,1.5,1.5,0,0,0-.38-.63,1.19,1.19,0,0,0-.61-.31,5.2,5.2,0,0,0-1.09-.07Z" transform="translate(-144.34 -290.63)"/><path class="cls-2" d="M386.85,412.14v-6.57h4.87v1.11h-3.54v1.46h3.3v1.11h-3.3V411h3.67v1.11Z" transform="translate(-144.34 -290.63)"/><path class="cls-2" d="M406.25,412.14v-2.76l-2.4-3.81h1.55l1.55,2.6,1.51-2.6H410l-2.42,3.81v2.76Z" transform="translate(-144.34 -290.63)"/><path class="cls-2" d="M415,408.9a4.22,4.22,0,0,1,.3-1.69,3.22,3.22,0,0,1,.62-.9,2.62,2.62,0,0,1,.84-.59,3.71,3.71,0,0,1,1.42-.26,3.07,3.07,0,0,1,2.32.9,4,4,0,0,1,0,5,3.07,3.07,0,0,1-2.31.9,3.11,3.11,0,0,1-2.33-.89A3.39,3.39,0,0,1,415,408.9Zm1.37,0a2.43,2.43,0,0,0,.52,1.69,1.76,1.76,0,0,0,2.6,0,2.52,2.52,0,0,0,.51-1.72,2.46,2.46,0,0,0-.49-1.68,1.82,1.82,0,0,0-2.64,0A2.49,2.49,0,0,0,416.33,408.85Z" transform="translate(-144.34 -290.63)"/><path class="cls-2" d="M427,405.57h1.32v3.56a7.89,7.89,0,0,0,.05,1.1,1,1,0,0,0,.41.64,1.66,1.66,0,0,0,1.72,0,1,1,0,0,0,.35-.57,7.14,7.14,0,0,0,.06-1.11v-3.64h1.32V409a9.13,9.13,0,0,1-.1,1.67,1.81,1.81,0,0,1-1.17,1.36,4.41,4.41,0,0,1-2.69,0,2,2,0,0,1-.77-.56,1.75,1.75,0,0,1-.37-.73,7.67,7.67,0,0,1-.13-1.66Z" transform="translate(-144.34 -290.63)"/><path class="cls-2" d="M438.17,412.14v-6.57H441a4.72,4.72,0,0,1,1.53.18,1.57,1.57,0,0,1,.77.63,1.9,1.9,0,0,1,.28,1,1.73,1.73,0,0,1-.43,1.22,2,2,0,0,1-1.3.61,3.17,3.17,0,0,1,.71.55,6.91,6.91,0,0,1,.75,1.07l.81,1.28h-1.59l-1-1.43a8.05,8.05,0,0,0-.7-1,1,1,0,0,0-.4-.28,2.15,2.15,0,0,0-.66-.07h-.27v2.74Zm1.33-3.79h1a5.34,5.34,0,0,0,1.19-.08A.7.7,0,0,0,442,408a.84.84,0,0,0,.14-.49A.8.8,0,0,0,442,407a.83.83,0,0,0-.5-.25,8.4,8.4,0,0,0-1,0h-1Z" transform="translate(-144.34 -290.63)"/><path class="cls-2" d="M456.52,412.14v-6.57h1.32v2.59h2.6v-2.59h1.33v6.57h-1.33v-2.87h-2.6v2.87Z" transform="translate(-144.34 -290.63)"/><path class="cls-2" d="M467.73,412.14v-6.57h4.86v1.11h-3.54v1.46h3.3v1.11h-3.3V411h3.67v1.11Z" transform="translate(-144.34 -290.63)"/><path class="cls-2" d="M484.35,412.14h-1.44l-.57-1.49h-2.63l-.54,1.49h-1.41l2.56-6.57h1.4Zm-2.44-2.6-.9-2.44-.89,2.44Z" transform="translate(-144.34 -290.63)"/><path class="cls-2" d="M489.68,412.14v-6.51H491V411h3.29v1.11Z" transform="translate(-144.34 -290.63)"/><path class="cls-2" d="M500.63,412.14v-5.46h-1.95v-1.11h5.22v1.11H502v5.46Z" transform="translate(-144.34 -290.63)"/><path class="cls-2" d="M509.35,412.14v-6.57h1.32v2.59h2.6v-2.59h1.33v6.57h-1.33v-2.87h-2.6v2.87Z" transform="translate(-144.34 -290.63)"/></svg>